<mxfile host="app.diagrams.net" modified="2023-09-30T03:46:12.344Z" agent="Mozilla/5.0 (Macintosh; Intel Mac OS X 10_15_7) AppleWebKit/537.36 (KHTML, like Gecko) Chrome/116.0.0.0 Safari/537.36" version="22.0.0" etag="eGI18iFMQF6VqyNoZmLP" type="device">
  <diagram id="dGZVXIkBk0M5uNdblfu1" name="Page-1">
    <mxGraphModel dx="954" dy="642" grid="1" gridSize="10" guides="1" tooltips="1" connect="1" arrows="1" fold="1" page="1" pageScale="1" pageWidth="850" pageHeight="1100" math="0" shadow="0">
      <root>
        <mxCell id="0" />
        <mxCell id="1" parent="0" />
        <mxCell id="0Xj9n4Az2dRIX0UAKorZ-1" value="VPC" style="points=[[0,0],[0.25,0],[0.5,0],[0.75,0],[1,0],[1,0.25],[1,0.5],[1,0.75],[1,1],[0.75,1],[0.5,1],[0.25,1],[0,1],[0,0.75],[0,0.5],[0,0.25]];outlineConnect=0;gradientColor=none;html=1;whiteSpace=wrap;fontSize=12;fontStyle=0;container=1;pointerEvents=0;collapsible=0;recursiveResize=0;shape=mxgraph.aws4.group;grIcon=mxgraph.aws4.group_vpc;strokeColor=#248814;fillColor=none;verticalAlign=top;align=left;spacingLeft=30;fontColor=#AAB7B8;dashed=0;" vertex="1" parent="1">
          <mxGeometry x="510" y="100" width="600" height="460" as="geometry" />
        </mxCell>
        <mxCell id="0Xj9n4Az2dRIX0UAKorZ-15" style="edgeStyle=orthogonalEdgeStyle;rounded=0;orthogonalLoop=1;jettySize=auto;html=1;startArrow=blockThin;startFill=1;" edge="1" parent="0Xj9n4Az2dRIX0UAKorZ-1" source="0Xj9n4Az2dRIX0UAKorZ-3" target="0Xj9n4Az2dRIX0UAKorZ-9">
          <mxGeometry relative="1" as="geometry" />
        </mxCell>
        <mxCell id="0Xj9n4Az2dRIX0UAKorZ-3" value="Web Server" style="image;aspect=fixed;perimeter=ellipsePerimeter;html=1;align=center;shadow=0;dashed=0;spacingTop=3;image=img/lib/active_directory/web_server.svg;" vertex="1" parent="0Xj9n4Az2dRIX0UAKorZ-1">
          <mxGeometry x="350" y="60" width="40" height="50" as="geometry" />
        </mxCell>
        <mxCell id="0Xj9n4Az2dRIX0UAKorZ-9" value="Route Table" style="outlineConnect=0;dashed=0;verticalLabelPosition=bottom;verticalAlign=top;align=center;html=1;shape=mxgraph.aws3.route_table;fillColor=#F58536;gradientColor=none;" vertex="1" parent="0Xj9n4Az2dRIX0UAKorZ-1">
          <mxGeometry x="110" y="200" width="40" height="50" as="geometry" />
        </mxCell>
        <mxCell id="0Xj9n4Az2dRIX0UAKorZ-10" value="" style="endArrow=classic;startArrow=classic;html=1;rounded=0;" edge="1" parent="0Xj9n4Az2dRIX0UAKorZ-1" source="0Xj9n4Az2dRIX0UAKorZ-5">
          <mxGeometry width="50" height="50" relative="1" as="geometry">
            <mxPoint x="60" y="280" as="sourcePoint" />
            <mxPoint x="110" y="230" as="targetPoint" />
          </mxGeometry>
        </mxCell>
        <mxCell id="0Xj9n4Az2dRIX0UAKorZ-13" value="Application Server" style="sketch=0;pointerEvents=1;shadow=0;dashed=0;html=1;strokeColor=none;fillColor=#505050;labelPosition=center;verticalLabelPosition=bottom;verticalAlign=top;outlineConnect=0;align=center;shape=mxgraph.office.servers.application_server_blue;" vertex="1" parent="0Xj9n4Az2dRIX0UAKorZ-1">
          <mxGeometry x="340" y="194" width="60" height="56" as="geometry" />
        </mxCell>
        <mxCell id="0Xj9n4Az2dRIX0UAKorZ-18" style="edgeStyle=orthogonalEdgeStyle;rounded=0;orthogonalLoop=1;jettySize=auto;html=1;" edge="1" parent="0Xj9n4Az2dRIX0UAKorZ-1" source="0Xj9n4Az2dRIX0UAKorZ-14" target="0Xj9n4Az2dRIX0UAKorZ-13">
          <mxGeometry relative="1" as="geometry">
            <Array as="points">
              <mxPoint x="370" y="310" />
              <mxPoint x="370" y="310" />
            </Array>
          </mxGeometry>
        </mxCell>
        <mxCell id="0Xj9n4Az2dRIX0UAKorZ-14" value="Database&lt;br&gt;" style="image;html=1;image=img/lib/clip_art/computers/Database_128x128.png" vertex="1" parent="0Xj9n4Az2dRIX0UAKorZ-1">
          <mxGeometry x="335" y="340" width="75" height="60" as="geometry" />
        </mxCell>
        <mxCell id="0Xj9n4Az2dRIX0UAKorZ-16" style="edgeStyle=orthogonalEdgeStyle;rounded=0;orthogonalLoop=1;jettySize=auto;html=1;entryX=1;entryY=0.5;entryDx=0;entryDy=0;entryPerimeter=0;startArrow=blockThin;startFill=1;" edge="1" parent="0Xj9n4Az2dRIX0UAKorZ-1" source="0Xj9n4Az2dRIX0UAKorZ-13" target="0Xj9n4Az2dRIX0UAKorZ-9">
          <mxGeometry relative="1" as="geometry">
            <Array as="points">
              <mxPoint x="260" y="225" />
              <mxPoint x="260" y="225" />
            </Array>
          </mxGeometry>
        </mxCell>
        <mxCell id="0Xj9n4Az2dRIX0UAKorZ-2" value="Client&lt;br&gt;GET Request&lt;br&gt;https://www.nike.com/" style="points=[[0.35,0,0],[0.98,0.51,0],[1,0.71,0],[0.67,1,0],[0,0.795,0],[0,0.65,0]];verticalLabelPosition=bottom;sketch=0;html=1;verticalAlign=top;aspect=fixed;align=center;pointerEvents=1;shape=mxgraph.cisco19.user;fillColor=#005073;strokeColor=none;" vertex="1" parent="1">
          <mxGeometry x="240" y="160" width="90" height="90" as="geometry" />
        </mxCell>
        <mxCell id="0Xj9n4Az2dRIX0UAKorZ-20" style="edgeStyle=orthogonalEdgeStyle;rounded=0;orthogonalLoop=1;jettySize=auto;html=1;startArrow=blockThin;startFill=1;" edge="1" parent="1" source="0Xj9n4Az2dRIX0UAKorZ-4" target="0Xj9n4Az2dRIX0UAKorZ-19">
          <mxGeometry relative="1" as="geometry" />
        </mxCell>
        <mxCell id="0Xj9n4Az2dRIX0UAKorZ-4" value="Internet" style="image;aspect=fixed;perimeter=ellipsePerimeter;html=1;align=center;shadow=0;dashed=0;spacingTop=3;image=img/lib/active_directory/internet_globe.svg;" vertex="1" parent="1">
          <mxGeometry x="370" y="280" width="50" height="50" as="geometry" />
        </mxCell>
        <mxCell id="0Xj9n4Az2dRIX0UAKorZ-5" value="Internet&#xa;gateway" style="sketch=0;outlineConnect=0;fontColor=#232F3E;gradientColor=none;strokeColor=#232F3E;fillColor=#ffffff;dashed=0;verticalLabelPosition=bottom;verticalAlign=top;align=center;html=1;fontSize=12;fontStyle=0;aspect=fixed;shape=mxgraph.aws4.resourceIcon;resIcon=mxgraph.aws4.internet_gateway;" vertex="1" parent="1">
          <mxGeometry x="480" y="290" width="60" height="60" as="geometry" />
        </mxCell>
        <mxCell id="0Xj9n4Az2dRIX0UAKorZ-7" value="" style="endArrow=classic;startArrow=classic;html=1;rounded=0;exitX=1;exitY=1;exitDx=0;exitDy=0;exitPerimeter=0;" edge="1" parent="1" source="0Xj9n4Az2dRIX0UAKorZ-2">
          <mxGeometry width="50" height="50" relative="1" as="geometry">
            <mxPoint x="330" y="330" as="sourcePoint" />
            <mxPoint x="380" y="280" as="targetPoint" />
          </mxGeometry>
        </mxCell>
        <mxCell id="0Xj9n4Az2dRIX0UAKorZ-8" value="" style="endArrow=classic;startArrow=classic;html=1;rounded=0;exitX=1;exitY=0.5;exitDx=0;exitDy=0;" edge="1" parent="1" source="0Xj9n4Az2dRIX0UAKorZ-4">
          <mxGeometry width="50" height="50" relative="1" as="geometry">
            <mxPoint x="440" y="360" as="sourcePoint" />
            <mxPoint x="490" y="310" as="targetPoint" />
          </mxGeometry>
        </mxCell>
        <mxCell id="0Xj9n4Az2dRIX0UAKorZ-19" value="CDN&lt;br&gt;(Added After Initial Blitz)" style="editableCssRules=.*;html=1;shape=image;verticalLabelPosition=top;labelBackgroundColor=#ffffff;verticalAlign=bottom;aspect=fixed;imageAspect=0;image=data:image/svg+xml,PHN2ZyB4bWxucz0iaHR0cDovL3d3dy53My5vcmcvMjAwMC9zdmciIHhtbG5zOnY9Imh0dHBzOi8vdmVjdGEuaW8vbmFubyIgd2lkdGg9IjIwIiBoZWlnaHQ9IjIwIiB2aWV3Qm94PSIwIDAgMjAgMjAiPiYjeGE7CTxzdHlsZSB0eXBlPSJ0ZXh0L2NzcyI+JiN4YTsJLnN0MHtmaWxsOiM0Mjg1ZjQ7fSYjeGE7CS5zdDF7ZmlsbDojNjY5ZGY2O30mI3hhOwkuc3Qye2ZpbGw6I2FlY2JmYTt9JiN4YTsJPC9zdHlsZT4mI3hhOwk8cGF0aCBjbGFzcz0ic3QxIiBkPSJNMTMuMTMgNS42M1YzLjIxTDEwIDB2Mi40MXptMy43NSA3LjVMMjAgMTBoLTIuNWwtMy4xMiAzLjEzem0tMTMuNzUgMEwwIDEwaDIuNWwzLjEzIDMuMTN6bTEwIDEuMjV2Mi40MUwxMCAyMHYtMi40MXoiIGZpbGwtcnVsZT0iZXZlbm9kZCIvPiYjeGE7CTxwYXRoIGNsYXNzPSJzdDIiIGQ9Ik02Ljg4IDUuNjNMMTAgMi40MVYwTDYuODggMy4yMXpNMTcuNSAxMEgyMGwtMy4xMi0zLjEyaC0yLjV6bS0xNSAwSDBsMy4xMy0zLjEyaDIuNXptNC4zOCA0LjM4TDEwIDE3LjU5VjIwbC0zLjEyLTMuMjF6bTAtNy41aDYuMjV2Ni4yNUg2Ljg4eiIgZmlsbC1ydWxlPSJldmVub2RkIi8+JiN4YTsJPHBhdGggY2xhc3M9InN0MSIgZD0iTTYuODggMTMuMTNsNi4yNS02LjI1djYuMjV6IiBmaWxsLXJ1bGU9ImV2ZW5vZGQiLz4mI3hhOwk8cGF0aCBjbGFzcz0ic3QwIiBkPSJNMTAgMTBsMy4xMy0zLjEydjYuMjV6IiBmaWxsLXJ1bGU9ImV2ZW5vZGQiLz4mI3hhOzwvc3ZnPg==;labelPosition=center;align=center;" vertex="1" parent="1">
          <mxGeometry x="420" y="140" width="50" height="50" as="geometry" />
        </mxCell>
      </root>
    </mxGraphModel>
  </diagram>
</mxfile>
